  General
    Unique ID : 193652094080798470343796949361242609337 (0x91B00963C09B6C689A9A2D849B9316B9)
    Complete name :Game of Thrones - Season 2Game.of.Thrones.S02E01.The.North.Remembers.HDTV.DD5.1.x264-AlDx.mkv
    Format : Matroska
    Format version : Version 2
    File size : 2.19 GiB
    Duration : 55mn 9s
    Overall bit rate : 5 690 Kbps
    Encoded date : UTC 2012-04-08 15:41:15
    Writing application : mkvmerge v5.0.0 ('Die Wahre Liebe') built on Sep 25 2011 20:33:49
    Writing library : libebml v1.2.2 + libmatroska v1.3.0
  Video #1
    ID : 1
    Format : AVC
    Format/Info : Advanced Video Codec
    Format profile : High@L4.1
    Format settings, CABAC : Yes
    Format settings, ReFrames : 9 frames
    Muxing mode : Header stripping
    Codec ID : V_MPEG4/ISO/AVC
    Duration : 55mn 9s
    Bit rate : 5 300 Kbps
    Width : 1 280 pixels
    Height : 714 pixels
    Display aspect ratio : 16:9
    Frame rate : 23.976 fps
    Color space : YUV
    Chroma subsampling : 4:2:0
    Bit depth : 8 bits
    Scan type : Progressive
    Bits/(Pixel*Frame) : 0.242
    Stream size : 2.00 GiB (91%)
    Writing library : x264 core 120 r2164+649+27 8ac9e86 tMod+MixAQ [8-bit@all X86_64]
    Encoding settings : cabac=1 / ref=9 / deblock=1:-3:-3 / analyse=0x3:0x133 / me=umh / subme=9 / psy=1 / fade_compensate=0.00 / psy_rd=1.15:0.15 / mixed_ref=1 / me_range=32 / chroma_me=1 / trellis=2 / 8x8dct=1 / cqm=0 / deadzone=21,11 / fast_pskip=1 / chroma_qp_offset=-3 / threads=6 / sliced_threads=0 / nr=0 / decimate=0 / interlaced=0 / bluray_compat=0 / constrained_intra=0 / fgo=0 / bframes=9 / b_pyramid=2 / b_adapt=2 / b_bias=0 / direct=3 / weightb=1 / open_gop=0 / weightp=2 / keyint=240 / keyint_min=23 / scenecut=40 / intra_refresh=0 / rc_lookahead=50 / rc=2pass / mbtree=1 / bitrate=5300 / ratetol=1.0 / qcomp=0.60 / qpmin=0 / qpmax=69 / qpstep=4 / cplxblur=20.0 / qblur=0.5 / ip_ratio=1.40 / aq=2 / aq-strength=0.60 / aq-sensitivity=10.00 / aq-ifactor=1.00 / aq-pfactor=1.00 / aq-bfactor=1.00 / aq2=0
  Audio #2
    ID : 2
    Format : AC-3
    Format/Info : Audio Coding 3
    Mode extension : CM (complete main)
    Muxing mode : Header stripping
    Codec ID : A_AC3
    Duration : 55mn 9s
    Bit rate mode : Constant
    Bit rate : 384 Kbps
    Channel(s) : 2 channels
    Channel positions : Front: L R
    Sampling rate : 48.0 KHz
    Bit depth : 16 bits
    Compression mode : Lossy
    Stream size : 152 MiB (7%)
  Text #3
    ID : 3
    Format : ASS
    Codec ID : S_TEXT/ASS
    Codec ID/Info : Advanced Sub Station Alpha
    Compression mode : Lossless

    

Source: Game.of.Thrones.S02E01.1080i.HDTV.DD5.1.MPEG2 